<svg xmlns="http://www.w3.org/2000/svg" width="18.196" height="27.254" viewBox="29 13 18.196 27.254"><path d="m39.192 39.816 7.548-9.566a1.532 1.532 0 0 0 .299-.399c.4-.776.005-1.743-.82-2.056a1.613 1.613 0 0 0-.573-.102h-4.727V14.498A1.522 1.522 0 0 0 39.412 13a1.629 1.629 0 0 0-.04-.001h-2.548a1.563 1.563 0 0 0-1.211.566 1.462 1.462 0 0 0-.336.932v13.195H30.55c-1.24 0-1.922 1.305-1.339 2.254a1.559 1.559 0 0 0 .245.303l7.548 9.566a1.566 1.566 0 0 0 1.029.437c.411.017.828-.125 1.145-.424a1.556 1.556 0 0 0 .014-.013Z" fill="rgba(255, 255, 255, 1)" fill-rule="evenodd" data-name="Forme 3 copie"/></svg>