<svg xmlns="http://www.w3.org/2000/svg" width="19.999" height="21" viewBox="33 17 19.999 21"><path d="M50.221 30.385v4.796H35.775v-4.796H33v6.206A1.397 1.397 0 0 0 34.39 38h17.218a1.399 1.399 0 0 0 1.39-1.41v-6.205h-2.777Zm-7.476-.475-3.974-4.882a.39.39 0 0 1-.002-.002c-.043-.042-.549-.548.005-.575a.99.99 0 0 1 .048-.001h2.24v-7.105a.071.071 0 0 1 0-.002c-.007-.028-.066-.332.399-.343a1.109 1.109 0 0 1 .025 0h3.152a.602.602 0 0 1 .083.006c.244.034.276.216.28.27a.187.187 0 0 1 0 .013v7.014h2.068c.78 0 .216.584.196.605a131.627 131.627 0 0 1-.043.058c-.391.527-3.37 4.538-3.814 4.985a.608.608 0 0 1-.066.058c-.288.219-.55-.047-.59-.093a.251.251 0 0 1-.006-.006Z" fill="rgba(255, 255, 255, 1)" fill-rule="evenodd" data-name="Forme 8"/></svg>