<svg xmlns="http://www.w3.org/2000/svg" width="37.001" height="30" viewBox="11 9 37.001 30"><path d="M47.253 9.95a.514.514 0 0 0-.416-.32.515.515 0 0 0-.061-.004.515.515 0 0 0-.42.215c-.601.843-1.377 1.165-2.274 1.488a67.587 67.587 0 0 1-.214.076c-.741.264-1.506.536-2.327 1.088a7.356 7.356 0 0 0-.181.126c-1.258.903-1.834 2.133-1.547 3.299l-.03.039a16.95 16.95 0 0 0-1.588-1.976 15.37 15.37 0 0 0-.112-.119c-2.822-2.942-6.766-4.71-10.82-4.852a15.627 15.627 0 0 0-.313-.008A14.997 14.997 0 0 0 26.724 9c-4.526 0-8.858 2.022-11.886 5.547A15.71 15.71 0 0 0 11 24.77c0 .767.058 1.536.176 2.301a16.031 16.031 0 0 0 .071.429 16.217 16.217 0 0 0 .141.69 16.86 16.86 0 0 0 2.278 5.498 12.261 12.261 0 0 0 5.523 4.718 8.214 8.214 0 0 0 .858.303c.664.194 1.328.291 1.982.291 2.329 0 4.363-1.244 5.58-3.414.463-.825.762-1.68.887-2.537a3.822 3.822 0 0 0 .038-.554c0-.314-.03-.625-.061-.931a496.733 496.733 0 0 0-.002-.019 9.932 9.932 0 0 1-.062-.863 3.774 3.774 0 0 1 .018-.43 3.028 3.028 0 0 1 .022-.17 2.273 2.273 0 0 1 .35-.924c.36-.534.956-.834 1.71-.834a3.12 3.12 0 0 1 .806.108l.054.015a3.466 3.466 0 0 1 .104.032 53.903 53.903 0 0 0-.667 1.26 44.478 44.478 0 0 0-.356.71 32.93 32.93 0 0 0-.54 1.155 16.627 16.627 0 0 0-.713 1.867 8.82 8.82 0 0 0-.054.183 15.386 15.386 0 0 0-.03.114c-.156.573-.426 1.788.43 2.382a1.317 1.317 0 0 0 .752.229h.007a1.579 1.579 0 0 0 .288-.027 1.848 1.848 0 0 0 .372-.105c.57-.224 1.727-.948 4.028-3.566a55.75 55.75 0 0 0 1.251-1.478 73.7 73.7 0 0 0 1.328-1.671 7.155 7.155 0 0 0 4.212-3.748 6.028 6.028 0 0 0 .404-1.223c.12-.56.17-1.16.15-1.781a83.693 83.693 0 0 0 1.217-1.936c.37-.607.728-1.213 1.086-1.839a84.66 84.66 0 0 0 .1-.176 1.564 1.564 0 0 0 .033-.06 2.322 2.322 0 0 0 .011-.022 3.904 3.904 0 0 0 1.93-1.266 4.939 4.939 0 0 0 .712-1.12c.824-1.772.763-4.048-.17-6.41Zm-7.977 9.848a101.564 101.564 0 0 0-1.759 2.507 103.638 103.638 0 0 0-.93 1.394 91.495 91.495 0 0 0-2.517 4.053 60.368 60.368 0 0 0-1.585 2.882 29.08 29.08 0 0 0-1.153 2.499 12.076 12.076 0 0 0-.292.817 9.49 9.49 0 0 0 .2-.166c.42-.359.907-.831 1.445-1.402a37.335 37.335 0 0 0 .896-.985 49.118 49.118 0 0 0 .538-.624c1.66-1.954 3.535-4.45 5.346-7.115a87.743 87.743 0 0 0 2.987-4.681 75.297 75.297 0 0 0 .186-.315 4.258 4.258 0 0 1-.217-.081 4.72 4.72 0 0 1-.911-.497 6.073 6.073 0 0 1-.6-.473 91.094 91.094 0 0 0-1.634 2.187Zm-6.46-.437a2.183 2.183 0 0 0 1.857-1.023 2.174 2.174 0 0 0 .338-1.162c0-.077-.004-.154-.012-.231a2.226 2.226 0 0 0-.044-.259 2.174 2.174 0 0 0-.968-1.367 2.185 2.185 0 0 0-1.166-.337 2.182 2.182 0 0 0-1.857 1.023 2.171 2.171 0 0 0-.326 1.386 2.225 2.225 0 0 0 .044.265c.13.57.474 1.056.97 1.368.35.22.753.337 1.165.337Zm-15.19 6.728a2.182 2.182 0 0 0-1.856 1.023 2.176 2.176 0 0 0-.283 1.652c.13.57.474 1.056.97 1.367a2.184 2.184 0 0 0 1.165.337 2.18 2.18 0 0 0 1.856-1.023 2.17 2.17 0 0 0 .338-1.162c0-.075-.004-.15-.012-.226a2.22 2.22 0 0 0-.043-.263 2.177 2.177 0 0 0-.97-1.368 2.184 2.184 0 0 0-1.165-.337Zm-.725-4.135a2.186 2.186 0 0 0 1.166.337 2.182 2.182 0 0 0 1.856-1.023 2.216 2.216 0 0 0 .047-.077 2.182 2.182 0 0 0 .22-1.633 2.182 2.182 0 0 0-.953-1.31 2.184 2.184 0 0 0-1.166-.337c-.759 0-1.453.383-1.856 1.023a2.175 2.175 0 0 0-.338 1.163c0 .074.004.149.011.223a2.221 2.221 0 0 0 .044.266c.13.57.474 1.056.97 1.368Zm7.743-8.868a2.181 2.181 0 0 0-1.856 1.023 2.173 2.173 0 0 0-.338 1.162 2.174 2.174 0 0 0 1.024 1.857 2.186 2.186 0 0 0 1.166.337 2.183 2.183 0 0 0 1.856-1.023 2.214 2.214 0 0 0 .046-.077c.293-.51.358-1.095.222-1.629a2.182 2.182 0 0 0-.955-1.314 2.182 2.182 0 0 0-1.165-.336Z" fill="rgba(34, 37, 44, 1)" fill-rule="evenodd" data-name="Forme 6"/></svg>