<svg xmlns="http://www.w3.org/2000/svg" width="22.997" height="22.992" viewBox="41 16 22.997 22.992"><path d="M59.77 30.613a4.159 4.159 0 0 0-2.415.768 4.322 4.322 0 0 0-.884.837l-7.182-3.639c.094-.346.16-.705.16-1.083a3.94 3.94 0 0 0-.17-1.104 5.558 5.558 0 0 0-.02-.07l7.144-3.624a4.211 4.211 0 0 0 3.078 1.668 4.304 4.304 0 0 0 .289.01 4.2 4.2 0 0 0 4.227-4.186A4.205 4.205 0 0 0 59.77 16c-2.33 0-4.223 1.876-4.223 4.19a4.122 4.122 0 0 0 .16 1.083l-7.176 3.639a4.222 4.222 0 0 0-2.976-1.593 4.246 4.246 0 0 0-.328-.012c-2.335 0-4.227 1.875-4.227 4.19a4.207 4.207 0 0 0 4.227 4.189 4.174 4.174 0 0 0 2.545-.862 4.34 4.34 0 0 0 .821-.824l7.145 3.623a4.067 4.067 0 0 0-.195 1.18 4.21 4.21 0 0 0 4.227 4.19 4.207 4.207 0 0 0 4.227-4.19c0-2.314-1.893-4.19-4.227-4.19Z" fill="rgba(255, 255, 255, 1)" fill-rule="evenodd" data-name="Forme 7"/></svg>