<svg xmlns="http://www.w3.org/2000/svg" width="18.17" height="27.254" viewBox="8 12.62 18.17 27.254"><path d="m15.993 13.06-7.537 9.564a1.532 1.532 0 0 0-.299.4c-.483.938.194 2.157 1.39 2.157h4.721v13.196a1.521 1.521 0 0 0 1.524 1.498 1.623 1.623 0 0 0 .02 0h2.545a1.56 1.56 0 0 0 1.221-.58 1.462 1.462 0 0 0 .324-.918V25.18h4.72c1.376 0 2.066-1.613 1.092-2.557l-7.537-9.565a1.58 1.58 0 0 0-2.17-.014 1.557 1.557 0 0 0-.014.014Z" fill="rgba(255, 255, 255, 1)" fill-rule="evenodd" data-name="Forme 3"/></svg>